<svg xmlns="http://www.w3.org/2000/svg" viewBox="0 0 996.7 528.86"><path d="M0 92.46h43.26v75.63h77.81V92.46h43.26v193.17h-43.26v-76.45H43.26v76.45H0V92.46zm262.6 196.16c-9.98 0-19.36-1.63-28.16-4.9-8.8-3.26-16.46-7.98-22.99-14.15-6.53-6.16-11.7-13.65-15.51-22.44-3.81-8.8-5.71-18.64-5.71-29.52 0-10.16 1.77-19.54 5.31-28.16 3.54-8.61 8.52-16.09 14.96-22.45 6.44-6.35 14.01-11.33 22.72-14.96 8.71-3.63 18.23-5.44 28.57-5.44 8.88 0 17.45 1.41 25.71 4.22 8.25 2.81 15.46 6.98 21.63 12.52 6.16 5.53 11.11 12.43 14.83 20.68 3.72 8.25 5.58 17.91 5.58 28.97 0 1.81-.05 3.86-.14 6.12-.09 2.27-.32 5.03-.68 8.3h-98.76c1.27 8.16 5.17 14.19 11.7 18.09 6.53 3.9 13.69 5.85 21.49 5.85s14.83-1.59 20.54-4.76c5.71-3.17 9.84-6.76 12.38-10.75l30.47 22.85c-6.35 9.07-15.01 16.32-25.98 21.77-10.98 5.44-23.63 8.16-37.95 8.16zm26.12-88.15c-1.82-7.25-5.44-12.47-10.88-15.64s-11.15-4.76-17.14-4.76c-3.09 0-6.17.37-9.25 1.09-3.09.73-5.99 1.9-8.71 3.54-2.72 1.63-5.13 3.72-7.21 6.26-2.09 2.54-3.58 5.71-4.49 9.52h57.68zm118.07 88.15c-8.89 0-17.19-1.9-24.89-5.71-7.71-3.81-14.38-8.93-20-15.37-5.62-6.44-10.07-13.96-13.33-22.58-3.26-8.61-4.9-17.73-4.9-27.34s1.63-18.73 4.9-27.34c3.27-8.61 7.71-16.14 13.33-22.58 5.62-6.44 12.29-11.56 20-15.37 7.71-3.81 16-5.71 24.89-5.71 4.53 0 8.75.5 12.65 1.5 3.9 1 7.43 2.31 10.61 3.94 3.17 1.63 5.89 3.45 8.16 5.44 2.27 2 4.12 3.9 5.58 5.71v-13.6h41.08v136.03h-41.08v-13.6c-1.45 1.81-3.31 3.72-5.58 5.71-2.27 2-4.99 3.81-8.16 5.44-3.18 1.63-6.71 2.95-10.61 3.94-3.9.99-8.12 1.5-12.65 1.5zm9.25-37.27c9.25 0 16.73-3.17 22.45-9.52 5.71-6.35 8.57-14.42 8.57-24.21s-2.86-17.86-8.57-24.21c-5.71-6.35-13.2-9.52-22.45-9.52s-16.73 3.18-22.45 9.52c-5.71 6.35-8.57 14.42-8.57 24.21s2.86 17.87 8.57 24.21c5.71 6.35 13.19 9.52 22.45 9.52zm98.1-169.77h41.08v204.05h-41.08V81.58zm140.01 205.68c-7.62 0-14.74-1.05-21.36-3.13-6.62-2.08-12.38-5.26-17.28-9.52s-8.8-9.61-11.7-16.05c-2.9-6.44-4.35-14.01-4.35-22.72v-50.6h-27.21V149.6h27.21v-37.82h41.08v37.82h38.09v35.64h-38.09v42.17c0 8.16 1.81 14.06 5.44 17.68 3.63 3.63 9.52 5.44 17.68 5.44 3.08 0 5.8-.18 8.16-.54 2.35-.36 4.63-1 6.8-1.9v36.46c-3.09.91-6.58 1.59-10.47 2.04-3.9.45-8.57.68-14.01.68zm48.99-1.63V81.58h41.08v81.89c3.26-4.71 8.16-8.71 14.69-11.97 6.53-3.26 14.24-4.9 23.13-4.9 8.34 0 15.78 1.5 22.31 4.49s12.06 7.12 16.6 12.38c4.53 5.26 7.98 11.61 10.34 19.04 2.36 7.44 3.54 15.6 3.54 24.49v78.63h-41.08v-71.55c0-9.43-1.82-16.82-5.44-22.17-3.63-5.35-9.16-8.03-16.6-8.03-7.8 0-14.33 2.86-19.59 8.57-5.26 5.71-7.89 14.74-7.89 27.07v66.11h-41.08zm164.6 56.86l28.3-64.75-56.59-128.14h44.89l33.74 84.07 33.46-84.07h45.16l-84.61 192.89h-44.35zM0 332.7h76.18c9.07 0 17.32 1.54 24.76 4.63 7.44 3.09 13.74 7.26 18.91 12.51 5.17 5.26 9.16 11.43 11.97 18.5 2.81 7.07 4.22 14.6 4.22 22.58 0 12.52-3.22 22.85-9.66 31.02-6.44 8.16-15.83 14.42-28.16 18.77l68.29 85.16h-51.96l-64.48-79.71h-6.8v79.71H0V332.7zm71.01 76.72c6.35 0 11.61-1.67 15.78-5.03 4.17-3.35 6.26-7.84 6.26-13.47s-2.09-10.34-6.26-13.6-9.43-4.9-15.78-4.9H43.26v37h27.75zm125.82-38.09c-3.45 0-6.71-.68-9.79-2.04-3.09-1.36-5.81-3.17-8.16-5.44-2.36-2.27-4.22-4.94-5.58-8.03-1.36-3.08-2.04-6.44-2.04-10.07 0-3.44.68-6.76 2.04-9.93 1.36-3.17 3.22-5.89 5.58-8.16 2.35-2.27 5.08-4.08 8.16-5.44 3.08-1.36 6.35-2.04 9.79-2.04 3.63 0 7.03.68 10.2 2.04 3.17 1.36 5.89 3.18 8.16 5.44 2.27 2.27 4.08 4.99 5.44 8.16 1.36 3.18 2.04 6.49 2.04 9.93 0 3.63-.68 6.98-2.04 10.07-1.36 3.09-3.18 5.76-5.44 8.03s-4.99 4.08-8.16 5.44c-3.18 1.36-6.58 2.04-10.2 2.04zm-20.4 18.5h41.08v136.03h-41.08V389.83zM314.28 527.5c-7.62 0-14.74-1.05-21.36-3.13-6.62-2.08-12.38-5.26-17.28-9.52s-8.8-9.61-11.7-16.05c-2.9-6.44-4.35-14.01-4.35-22.72v-50.6h-27.21v-35.64h27.21v-37.82h41.08v37.82h38.09v35.64h-38.09v42.17c0 8.16 1.81 14.06 5.44 17.68 3.63 3.63 9.52 5.44 17.68 5.44 3.08 0 5.8-.18 8.16-.54 2.35-.36 4.63-.99 6.8-1.9v36.46c-3.09.91-6.58 1.59-10.47 2.04-3.9.45-8.57.68-14.01.68zm97.53 1.36c-16.87 0-29.65-5.62-38.36-16.87-8.71-11.24-13.06-26.12-13.06-44.62v-77.54h41.08v70.46c0 9.98 1.59 17.68 4.76 23.13 3.17 5.44 8.57 8.16 16.19 8.16s14.01-2.81 18.64-8.43c4.63-5.62 6.94-14.69 6.94-27.21v-66.11h41.08v136.03H448v-13.88c-3.27 4.72-7.89 8.71-13.88 11.97s-13.42 4.9-22.31 4.9zm162.31 0c-8.89 0-17.19-1.9-24.89-5.71-7.71-3.81-14.38-8.93-20-15.37-5.62-6.44-10.07-13.96-13.33-22.58-3.26-8.61-4.9-17.73-4.9-27.34s1.63-18.73 4.9-27.34c3.26-8.61 7.71-16.14 13.33-22.58 5.62-6.44 12.29-11.56 20-15.37 7.71-3.81 16.01-5.71 24.89-5.71 4.53 0 8.75.5 12.65 1.5 3.9 1 7.44 2.31 10.61 3.94 3.17 1.63 5.89 3.45 8.16 5.44 2.27 2 4.12 3.9 5.58 5.71v-13.6h41.08v136.03h-41.08v-13.6c-1.45 1.81-3.31 3.72-5.58 5.71-2.27 2-4.99 3.81-8.16 5.44-3.18 1.63-6.71 2.95-10.61 3.95-3.9.99-8.12 1.5-12.65 1.5zm9.25-37.27c9.25 0 16.73-3.17 22.45-9.52 5.71-6.35 8.57-14.42 8.57-24.21s-2.86-17.86-8.57-24.21c-5.71-6.35-13.19-9.52-22.45-9.52s-16.73 3.18-22.44 9.52c-5.71 6.35-8.57 14.42-8.57 24.21s2.86 17.87 8.57 24.21c5.71 6.35 13.19 9.52 22.44 9.52zm98.11-169.77h41.08v204.05h-41.08V321.82zM798.6 528.86c-11.97 0-22.81-2-32.51-5.99-9.71-3.99-17.73-10.16-24.08-18.5l27.21-24.76c3.08 4.54 7.16 8.03 12.24 10.47 5.08 2.45 10.79 3.67 17.14 3.67 3.08 0 5.94-.59 8.57-1.77 2.63-1.18 3.94-3.13 3.94-5.85 0-2.35-1-4.26-2.99-5.71-2-1.45-6.53-3.08-13.6-4.9l-8.98-2.18c-13.06-3.08-22.85-8.57-29.38-16.46s-9.62-17.28-9.25-28.16c.18-6.35 1.59-12.11 4.22-17.28 2.63-5.17 6.26-9.56 10.88-13.19 4.63-3.63 10.11-6.44 16.46-8.43 6.35-1.99 13.24-2.99 20.68-2.99 21.04 0 37 7.53 47.88 22.58l-26.66 22.04c-3.09-3.99-6.44-6.8-10.07-8.43a27.6 27.6 0 00-11.43-2.45c-2.54 0-5.03.54-7.48 1.63-2.45 1.09-3.67 2.9-3.67 5.44 0 1.45.59 3.09 1.77 4.9 1.18 1.82 4.4 3.45 9.66 4.9l12.51 3.27c12.33 3.26 22.08 8.21 29.25 14.83 7.16 6.62 10.75 16.01 10.75 28.16 0 6.53-1.36 12.56-4.08 18.09-2.72 5.53-6.49 10.3-11.29 14.28-4.81 3.99-10.43 7.12-16.87 9.39-6.44 2.27-13.38 3.4-20.81 3.4z" fill="#fff"/><path d="M328.86 128.21l3.27-6.22C362.68 63.75 339.78 15 274.82 0s-3.27 6.22-3.27 6.22c-30.56 58.23-7.66 106.98 57.31 121.99z" fill="#7eb64e"/><path d="M328.47 128.59l6.72-1.69c62.87-15.82 84.59-62.71 54.36-117.35s-6.72 1.69-6.72 1.69c-62.87 15.82-84.59 62.71-54.36 117.35z" fill="#0a7771"/></svg>